<svg xmlns="http://www.w3.org/2000/svg" width="75.4" height="75.4" viewBox="0 0 75.4 75.4"><path d="M40.1,18.2a2.4,2.4,0,1,1-2.4-2.4h0a2.43,2.43,0,0,1,2.4,2.4m-7.3,0a4.9,4.9,0,1,0,4.9-4.9h0a5,5,0,0,0-4.9,4.9" fill="#8991c0"/><path d="M64.4,23.1v-.5L52.2,10.9H64l9,9v3.2Zm0,2.4H73V28H64.5V25.5Zm7.3,40.1H69.3V68H73v4.9H2.4V68H66.8V65.6H62V60.7H59.6v-23H62V32.8h2.4V30.4h7.3ZM3.6,30.4H6V28H2.4V25.6h8.5V28H8.5v2.4h2.4v2.4h2.4v4.9h2.4V60.8H13.3v4.9H3.6ZM2.4,20l9-9H23.2L10.9,22.6v.5H2.4ZM52.3,32.8h7.3v2.4H52.3Zm4.8,28H54.7V37.7h2.5Zm-15.8,0V37.7h2.4V32.8h6.1v4.9h2.4V60.8H49.8v4.9H43.7V60.8ZM34,63.3h7.3v2.4H34Zm0-30.4h7.3v2.4H34Zm4.9,28H36.5V37.7h2.4Zm-15.8,0V37.7h2.4V32.8h6.1v4.9H34V60.8H31.6v4.9H25.5V60.8Zm0,4.8H15.8V63.2h7.3Zm-4.9-28h2.4V60.8H18.2Zm-2.4-4.9h7.3v2.4H15.8ZM59.6,65.7H52.3V63.2h7.3ZM35.7,2.4h3.9L62,23.6v6.8H13.4V23.6ZM64.9,8.5H49.6L40.6,0H34.8l-9,8.5H10.4L0,19V30.4H1.2V65.7H0v9.7H75.4V65.7H74.2V30.4h1.2V19Z" fill="#8991c0"/><rect x="6.1" y="40.1" width="2.4" height="2.4" fill="#8991c0"/><rect x="10.9" y="40.1" width="2.4" height="2.4" fill="#8991c0"/><rect x="6.1" y="45" width="2.4" height="2.4" fill="#8991c0"/><rect x="10.9" y="45" width="2.4" height="2.4" fill="#8991c0"/><rect x="6.1" y="49.8" width="2.4" height="2.4" fill="#8991c0"/><rect x="10.9" y="49.8" width="2.4" height="2.4" fill="#8991c0"/><rect x="6.1" y="54.7" width="2.4" height="2.4" fill="#8991c0"/><rect x="10.9" y="54.7" width="2.4" height="2.4" fill="#8991c0"/><rect x="62" y="40.1" width="2.4" height="2.4" fill="#8991c0"/><rect x="66.9" y="40.1" width="2.4" height="2.4" fill="#8991c0"/><rect x="62" y="45" width="2.4" height="2.4" fill="#8991c0"/><rect x="66.9" y="45" width="2.4" height="2.4" fill="#8991c0"/><rect x="62" y="49.8" width="2.4" height="2.4" fill="#8991c0"/><rect x="66.9" y="49.8" width="2.4" height="2.4" fill="#8991c0"/><rect x="62" y="54.7" width="2.4" height="2.4" fill="#8991c0"/><rect x="66.9" y="54.7" width="2.4" height="2.4" fill="#8991c0"/><path d="M55.9,25.5H19.5v-.6L37,8.6h1.5L56,24.9v.6Zm2.5-1.7L39.4,6.1H36L17,23.8V28H58.3Z" fill="#8991c0"/></svg>